<?xml version="1.0" encoding="UTF-8"?>
<svg id="Layer_1" data-name="Layer 1" xmlns="http://www.w3.org/2000/svg" version="1.1" viewBox="0 0 1118.33 682">
  <defs>
    <style>
      .cls-1 {
        fill: #06c;
        stroke-width: 0px;
      }
    </style>
  </defs>
  <path class="cls-1" d="M111.82,471.14c.83-8.11,1.95-17.1,3.38-25.32-23.33-38.06-35.89-83.1-33.74-130.33,2.61-60.95,28.85-117.69,73.06-159.68,27.08-25.47,60.11-44.5,95.8-55.08,19.43-5.74,39.48-8.84,59.76-9.8-7.93-.25-16.05-.1-24,.31-5.92.48-13.74,1.18-19.57,2.19l-4.34.64-4.31.85c-17.17,3.18-34.35,8.69-50.31,15.73-106,46.65-162.95,165.59-134.46,277.7,7.5,29.97,20.82,58.06,38.74,82.8ZM282.08,554.26c-21.58-2.72-42.15-8.45-61.32-16.7l1.33,18.27c117.75,45.12,253.04-9.23,304.75-125.88,4.03-9.19,7.85-19.33,10.61-28.95,2.39-8.08,4.46-17.4,5.98-25.66.55-4.02,1.43-9.02,1.85-13.03l.8-8.71c.26-2.52.33-6.17.45-8.73.38-5.81.09-11.65.04-17.44-5.27,138.78-126.06,244.67-264.49,226.83ZM121.4,327.43c3.4-97.82,81.04-178.35,179.14-182.44,22.87-1.02,44.92,2.23,65.41,9h.01c8.95-.47,20.55-.68,33.98,0-29.13-15.05-62.63-22.88-98.22-21.04-102.32,4.87-184.22,91.61-180.31,194.47ZM310.07,516.1c12.68.45,25.69-.4,38.22-2.5,5.32-.98,11.86-2.4,17.1-3.8,3.13-.79,6.98-2.12,10.1-3.03,67.34-22.47,117.53-82.83,127.31-153.16,1.61-11.07,2.25-22.03,1.99-32.8-.02-1.03-.05-2.05-.11-3.07l-12.14,4.07c.03.85.05,1.72.08,2.58.1,4.16.05,8.36-.13,12.58-4.28,98.34-84.51,175.56-182.41,179.14ZM573.22,238.61c-.78-3.33-4.05-5.35-10.07-6.19-4.17-.48-8.35-.46-12.78.09-.92.11-1.81.24-2.71.39.73-.3,1.45-.59,2.19-.87,2.33-.94,4.64-1.88,6.91-2.83,7.87-1.44,12.48-4.43,12.97-8.4.43-3.42-2.22-6.48-7.88-9.08-19.92-14.21-51.8-28.07-83.38-35.82h-.04c-14.12-3.48-28.17-5.73-41.07-6.24h-.01c-4.14-.16-8.15-.14-12.02.07-2.32.13-4.58.33-6.78.59-2.81.35-5.53.81-8.09,1.39-2.25-.1-4.48-.17-6.71-.21-12.98-.28-25.59.32-37.58,1.79-18.51,2.27-36.03,6.68-52.06,13.1-1.9-.19-3.82-.39-5.76-.6-9.73-1.03-19.79-2.1-29.46-.92-9.2,1.14-16.88,4.16-23.45,9.21-19.09,12.94-36.36,29.82-54.32,53.14-9.19,7.45-41.09,59.07-35.71,72.43.71,1.78,2.68,4.67,7.78,4.04,2.79-.34,6.27-1.72,10.56-4.16-23.21,45.26-37.96,97.31-44.85,158.41h0c-.72,6.34-1.34,12.75-1.89,19.28-.66.5-1.3,1.01-1.95,1.51-24.18,18.91-40.55,39.59-57.87,61.46l-.27.35c-2.55,3.21-5.14,6.48-7.86,9.89l-.94,1.3c-25.4,35.15-33.75,56.03-25.53,63.85.13.13.27.24.4.32,2.78,1.76,5.86,2.44,9.15,2.03,5.88-.72,11.44-4.75,16.38-8.33,1.55-1.13,3.03-2.2,4.4-3.08,11.46,3.76,21.1,5.09,29.44,4.07,13.97-1.72,24.62-10.24,31.72-25.41.03-.09.07-.19.09-.26.05-.2,4.41-16.11,9.21-27.76-.79,3.2-1.75,6.58-2.74,10.05-4.16,14.63-8.47,29.77-1.84,39.39.3.43.7.75,1.19.95,10.26,4.05,28.52,7.53,44.36,5.58,6.52-.8,12.05-2.46,16.53-4.97,6.36-4.24,8.7-14.72,6.75-30.35-2.44-14.35-5.51-26.84-8.23-37.86-1.4-5.67-2.71-10.98-3.8-16.04h0c-1.61-7.43-2.74-14.28-3.01-20.87-.86-21.28,7.4-39.7,38.62-64.88.55,1.16,1.33,2.24,2.35,3.21,3.56,3.41,10.08,5.3,15.82,4.59,2.02-.25,3.76-.78,5.38-1.65,10.4-6.35,17.44-16.88,24.24-27.08,6.61-9.89,13.44-20.13,23.03-25.81,12.33-6.36,27.92-13.14,44.43-20.32,48.91-21.24,109.73-47.66,130.46-83.42,4.72-1.39,9.35-3.02,13.89-4.87,4.05-1.65,8.03-3.5,11.92-5.53,12.7-6.59,24.53-15.15,35.4-25.55,1.49-1.32,4.82-3.58,8.69-6.21,15.98-10.83,28.06-19.69,26.38-26.92ZM180.55,310.74c-2,1.26-3.13,1.62-3.65,1.73-.64-6.9,14.14-34.61,36.62-63.72,25.97-33.63,50.15-54.06,66.35-56.05.54-.07,1.06-.11,1.57-.14.04,0,.29-.02.32-.03.45-.08.9-.14,1.34-.2,4.73-.58,10.08-.15,15.24.25.56.04,1.13.09,1.68.13-42.34,21.17-78.02,58.24-108.93,113.15-3.34,1.14-6.7,2.69-10.55,4.88ZM192.5,616.96c-1.91,3.03-4.71,4.94-8.54,5.84-20.32,1.26-33,1.72-37.69-4.34-3.79-4.9-2.81-15.59,3.07-33.6.3-.83,7.2-20.27,3.27-25.18-.9-1.14-2.26-1.67-3.74-1.5-1.33.16-2.79.92-4.45,2.29-.1.08-.19.16-.27.25-6.48,7.03-10.38,17.56-14.15,27.76-5.75,15.53-11.18,30.19-24.61,31.84-.7.09-1.43.14-2.09.15-4.58-.05-8.85-1.14-12.97-2.2-5.14-1.31-9.99-2.55-15.24-1.9-3.81.47-7.33,1.88-10.73,4.31-6.69,4.44-10.06,5.61-11.72,5.81-.64.08-.9-.01-.92-.01-1.77-2.89,5.76-20.29,21-43.4.03-.04.08-.13.12-.21,16.97-25.19,39.21-50.7,62.84-72.13.1,7.48,2.84,15.15,7.35,20.24,3.99,4.5,8.87,6.54,14.1,5.9,2.19-.27,4.39-1.03,6.57-2.23.52-.08,1.02-.31,1.41-.67,1.86-1.7,3.58-3.52,5.23-5.4,2.99-3.42,5.7-7.05,8.38-10.61.66-.89,1.32-1.78,2.01-2.68.43-.57.86-1.15,1.31-1.72-.04.84-.07,1.69-.07,2.57-.05,6.35.91,13.63,2.35,21.43,1.25,6.76,2.87,13.93,4.52,21.27,5.23,23.14,10.63,47.05,3.64,58.09ZM268.19,437.35c-4.56,7.55-8.85,14.68-14.59,15.38-3.03.37-6.5-1.01-10.57-4.23,10.58-8.45,21.8-16.25,33.47-23.28-3.1,3.48-5.75,7.87-8.32,12.13ZM551.51,247.96c-15.29,13.7-31.81,28.5-50.53,39.27-3.82,2.21-7.75,4.25-11.78,6.08-9.18,4.16-18.87,7.21-29.21,8.64-19.2,1.93-50.52-6.71-56.78-31.4-.42-1.68-2.08-2.73-3.95-2.5-1.9.23-3.21,1.7-3.1,3.53.95,10.22,6.02,19.3,14.69,26.27,12.82,10.32,32.88,15.54,51.11,13.3.54-.07,1.08-.14,1.62-.22-30.64,34.19-74.25,52.25-116.46,69.72-22.73,9.42-46.25,19.15-67.21,31.22-27.04,14.72-75.46,46.4-107.13,97.64-1.93,3.11-3.79,6.29-5.58,9.55-1.38,1.44-2.81,2.89-4.27,4.15-2.38,2.07-4.88,3.7-7.49,4.22-.15.02-.3.05-.47.1-.14.04-.28.08-.44.1-.94.11-1.98-.42-3.08-1.56-3.33-3.49-5.27-10.78-4.63-14.61.03-.46.07-.93.1-1.39.5-7.16,1.17-14.32,1.97-21.46,7.73-68.71,28.87-136.11,59.25-187.87,40.63-69.2,96.53-110,161.67-118.01,9.08-1.11,18.48-1.62,27.98-1.49-13.47,18.17-14.05,44.05-14.45,61.41-.02,1.32.94,2.46,2.25,2.64.23.03.46.04.69.01,1.07-.13,1.93-.89,2.21-1.93,1.29-4.89,2.38-10.06,3.44-15.09,3.65-17.29,7.43-35.16,19.92-46.82.35-.07.68-.21.97-.4.85-.59,1.86-1.11,3.01-1.57,2.07-.82,4.6-1.42,7.56-1.78,3.49-.43,7.45-.51,11.78-.32,28.93,1.32,73.61,15.39,94.27,24.52.08.07.15.13.24.17.83.52,2.49,1.38,4.81,2.56,20.85,10.6,23.41,14.29,23.45,15.45-.13.15-.62.5-1.79.9-2,.73-4.03,1.44-6.08,2.15-9.45,3.31-19.22,6.74-27.43,12.47l-.49.28c-5.97,3.45-12.15,7.02-19.38,7.91-.64.08-1.29.13-1.95.16,0-.02.01-.04.01-.07.03-.83-.23-2.33-2.42-3.21-.19-.1-.39-.16-.61-.22-2.2-.46-4.68-.56-7.01-.27-2.11.26-3.88.81-5.22,1.58-1.62.93-2.63,2.19-2.94,3.69-.59,2.92,1.53,5.79,6.31,8.55.09.04.19.09.27.13.67.3,1.38.48,2.05.56.51.07,1.01.07,1.48.01,1.5-.19,2.68-.95,3.28-2.1,2.98.48,6.34.48,10.2.01,7.37-.91,15.47-3.44,23.32-5.89,7.65-2.38,14.87-4.64,21.2-5.42,3.19-.39,5.87-.36,8.12.08-2.43,2.15-4.87,4.34-7.34,6.56ZM392.53,303.19c.66-1.04.72-2.3.2-3.34-.75-1.51-2.46-2.15-3.69-2.26-.78-.05-1.57-.09-2.47-.08-3.84.11-8.28.47-12.86,1.03-7.94.97-35.24,5.05-53.07,16.46-6.43,4.03-21.38,14.58-21.48,25.38-.04,4.61,2.46,8.61,7.47,11.89,7.09,4.39,14.75,6.12,22.77,5.14,26.42-3.25,50.89-35.34,63.13-54.2ZM333.67,344.9c-4.79.59-9.15-.55-13.32-3.46-2.35-3.31-2.95-6.36-1.84-9.32,3.6-9.63,23.87-18.59,60.26-26.65.51-.12,1.01-.23,1.46-.33-.28.38-.58.79-.9,1.22-1.49,1.7-3.15,3.7-4.91,5.81-10.24,12.31-25.71,30.88-40.76,32.73ZM485.86,221.14c.7-1.77,1.2-5.54-3.33-10.94-3.57-4.09-8.61-6.5-12.55-6.02-.93.12-1.78.38-2.54.8-1.29.71-2.23,1.78-2.75,3.13-.16.42-.28.86-.37,1.33-.55,3.09.8,6.86,3.57,10.04,2.31,2.91,5.42,4.92,8.52,5.62h0c1.22.28,2.45.36,3.63.22,2.79-.34,4.91-1.86,5.81-4.17ZM404.54,117.42c19.25,3.2,34.33,18.28,37.53,37.52.26,1.59,1.64,2.76,3.25,2.76h1.34c1.61,0,2.99-1.17,3.25-2.76,3.2-19.24,18.28-34.32,37.53-37.52,1.59-.26,2.76-1.64,2.76-3.25v-1.34c0-1.61-1.17-2.99-2.76-3.25-19.25-3.2-34.34-18.28-37.53-37.54-.26-1.59-1.64-2.76-3.25-2.76h-1.34c-1.61,0-2.99,1.17-3.25,2.76-3.19,19.25-18.27,34.34-37.53,37.54-1.59.26-2.76,1.64-2.76,3.25v1.34c0,1.61,1.17,2.99,2.76,3.25ZM445.99,82.82c5.28,14.18,16.5,25.39,30.68,30.68-14.18,5.28-25.39,16.5-30.68,30.67-5.28-14.17-16.5-25.39-30.67-30.67,14.18-5.28,25.39-16.5,30.67-30.68ZM525.4,122.52c-1.54,0-2.88,1.07-3.22,2.58-2.42,10.79-10.97,19.34-21.77,21.77-1.5.34-2.57,1.68-2.57,3.22v1.55c0,1.54,1.07,2.88,2.58,3.22,10.8,2.42,19.35,10.96,21.77,21.76.34,1.51,1.67,2.58,3.22,2.58h1.54c1.54,0,2.88-1.07,3.22-2.58,2.42-10.79,10.96-19.33,21.76-21.76,1.51-.34,2.58-1.67,2.58-3.22v-1.55c0-1.54-1.07-2.88-2.57-3.22-10.79-2.43-19.34-10.97-21.76-21.77-.34-1.5-1.67-2.58-3.22-2.58h-1.54ZM543.32,150.86c-7.53,3.52-13.63,9.62-17.15,17.14-3.52-7.53-9.62-13.63-17.15-17.14,7.53-3.52,13.63-9.62,17.15-17.15,3.52,7.53,9.62,13.63,17.15,17.15ZM484.35,71.48c8.13,2.03,14.44,8.34,16.47,16.46.46,1.83,2.09,3.11,3.97,3.11s3.51-1.28,3.97-3.11c2.03-8.13,8.34-14.44,16.46-16.47,1.83-.46,3.11-2.09,3.11-3.97s-1.27-3.51-3.1-3.97c-8.13-2.04-14.44-8.35-16.47-16.48-.46-1.83-2.09-3.1-3.97-3.1s-3.51,1.28-3.97,3.11c-2.03,8.13-8.35,14.44-16.48,16.48-1.83.46-3.1,2.09-3.1,3.97s1.28,3.51,3.11,3.97ZM504.79,55.08c2.77,5.32,7.1,9.66,12.42,12.42-5.32,2.76-9.66,7.1-12.42,12.42-2.77-5.32-7.1-9.65-12.43-12.42,5.32-2.77,9.66-7.1,12.43-12.42ZM349.6,218.87c5.61-.77,4.55-8.85-.99-8.25-1.94.27-3.4.69-5.18,1.13-20.37,5.88-38.41,17.95-54.37,31.62-27.81,24.05-49.56,54.42-67.83,86.11-8.45,15.05-16.56,31.01-23.58,46.76-10.38,23.16-19.37,46.9-27.37,70.93-.28.85.17,1.77,1.01,2.06.86.3,1.79-.15,2.09-1.01,17.79-50.36,39.69-99.83,70.41-143.71,19.7-27.87,43.22-54.02,72.55-71.89,10.34-6.14,21.4-11.57,33.27-13.75ZM322.04,309.21c2.52-1.19,5.33-2.36,7.97-3.28,1.81-.62,3.67-1.11,5.49-1.67,1.28-.29,2.06-1.66,1.59-2.9-.42-1.13-1.68-1.71-2.81-1.29-3.27,1.12-6.72,2.45-9.85,3.93-11.23,5.55-21.48,13.9-27.37,25.14-.48,1.01,1.02,1.69,1.49.72,1.88-3.26,4.41-6.3,7.11-9.01,4.74-4.78,10.38-8.63,16.38-11.63ZM363.4,362.8l-5.36,2.22c-.27.1-.42.4-.33.68.09.29.4.45.68.36,1.95-.62,6.42-2.01,8.36-2.64,1.64-.58,6.6-2.39,8.25-2.98,23.73-9.27,46.29-21.56,67.15-36.23,3.46-2.42,1.85-8.08-2.41-8.28-1.55-.09-3.1.36-4.66.42-1.93.12-4.13.17-6.07.06-7.57-.55-15.25-3.05-21.13-8.01-.19-.19-.49-.23-.72-.07-.25.18-.3.52-.13.76,1.78,2.49,3.94,4.58,6.33,6.48,4.42,3.51,9.71,6.12,15.18,7.69-1.91,1.5-3.82,2.97-5.63,4.35-18.45,13.78-38.29,26.14-59.52,35.18ZM135.17,562.92c-1.9,2.34-3.38,4.85-4.85,7.39-4.19,7.35-7.7,16.02-10.71,23.95-3.91,10.81-12.73,18.82-24.79,17.39-.68-.14-.94.83-.29,1.05,9.06,2.87,18.89-1.26,24.23-9.06,5.09-7.31,6.98-16.23,10.46-24.26,2.12-5.32,4.26-10.74,6.85-15.83.14-.23.1-.54-.12-.71-.23-.19-.58-.16-.77.08ZM175.94,538.48c.84,18.59,8.36,36.57,8.92,55.13.12,2.56-.06,5.33-.37,7.88-.52,3.79-2.56,7.22-5.54,9.69-2.39,1.98-5.35,3.31-8.77,3.97-.65.1-1.21.58-1.38,1.26-.21.89.34,1.79,1.24,2,4.08.96,8.69.07,12.42-2.3,4.73-2.9,7.85-8.28,8.4-13.8.15-1.77.37-4.26.29-6.01-.29-20.06-9.68-38.61-13.41-57.98-.18-1.13-1.81-.91-1.78.16ZM458.09,191.53c-2.41-1.49-4.93-2.77-7.55-3.87-10.84-4.6-24.72-5.19-34.09,3-6.82,5.9-10.31,15.17-9.55,24.04.04.59.94.66,1.09.1,6.04-16.28,15.46-25.91,33.63-24.61,5.25.27,10.58,1.31,16.06,2.36.22.05.46-.05.59-.25.16-.26.08-.6-.18-.76ZM458.59,109.39c2.04,1.23,4.31,2.23,6.71,2.47.21.02.42-.08.53-.27.16-.27.06-.63-.22-.78-1.94-1.15-3.68-2.39-5.36-3.76-4.95-4.05-9.56-9.55-13.8-14.38-.37-.48-1.18-.01-.94.55,2.72,6.46,7.17,12.31,13.07,16.17ZM524.53,140.37c1.15,2.84,2.89,5.38,4.99,7.6,2.11,2.21,4.81,4.22,7.95,4.58.37.05.55-.49.22-.67-4.98-2.91-8.76-7.59-12.54-11.87-.24-.32-.77,0-.62.36ZM514.4,68.25c.08-.14.03-.32-.11-.4-3.99-2.36-6.83-5.9-9.88-9.36-.19-.25-.61,0-.49.28,1.43,3.67,6.22,9.86,10.48,9.47Z"/>
  <g>
    <path class="cls-1" d="M713.76,193.49c73.12,0,45.73,147.51-29.5,147.51h-60.06c12.43-10.54,34.56-136.97,25.71-147.51h63.85ZM672.45,332.57c41.09-5.27,64.48-130.44,22.97-130.65l-22.97,130.65Z"/>
    <path class="cls-1" d="M813.66,265.98c1.69-17.07-3.58-23.18-9.48-23.18-8.64,0-18.75,12.85-10.75,22.76l.21.21c-4,4.21-9.9,6.74-14.75,6.74-5.9,0-10.33-3.37-8.85-11.8,2.95-16.02,24.02-27.18,43.62-27.18,21.07,0,40.46,12.64,34.77,45.31-5.69,34.14-7.16,57.32-2.95,62.16h-44.67l1.05-6.53c-8.01,5.69-17.49,8.64-26.34,8.64-16.02,0-29.29-9.69-25.71-30.56,5.9-33.72,44.25-33.29,63.85-46.57ZM812.18,274.83c-13.06,11.17-25.08,19.39-27.81,35.19-2.11,12.01,2.74,19.39,10.53,19.39,2.53,0,5.27-.63,8.22-2.11l9.06-52.47Z"/>
    <path class="cls-1" d="M848.66,341c12.43-10.54,26.97-94.83,18.33-105.36h52.68c-12.43,10.54-27.39,94.83-18.75,105.36h-52.26ZM900.92,191.39c9.27,0,17.49,6.32,15.38,18.75-2.11,12.64-12.64,18.97-22.13,18.97s-17.49-6.32-15.38-18.97c2.32-12.43,12.64-18.75,22.13-18.75Z"/>
    <path class="cls-1" d="M904.75,341c12.43-10.54,34.56-136.97,25.71-147.51h52.68c-12.22,10.53-34.77,136.97-26.13,147.51h-52.26Z"/>
    <path class="cls-1" d="M992.81,341l-10.75-73.33c-2.74-21.71-7.8-28.87-13.49-32.03h54.58c-3.79,1.9-5.27,9.48-4,19.6l7.16,46.15,8.85-16.23c13.28-28.66,18.12-44.04,14.33-49.31h29.29c-8.64,3.79-14.75,12.64-34.14,48.47l-49.31,92.51c-9.27,18.54-21.07,25.29-30.35,25.29-9.9,0-16.86-8.22-13.91-18.12,1.9-6.53,7.59-12.43,14.96-12.43,2.32,0,5.06.63,7.59,2.11-5.06,4.64-3.16,10.75,1.69,10.75,3.16,0,7.59-2.53,11.8-9.69l18.12-33.72h-12.43Z"/>
  </g>
  <g>
    <path class="cls-1" d="M594.47,521.37c12.43-10.54,34.56-136.97,25.71-147.51h102.41l-.42,27.6c-7.8-15.17-35.4-17.07-56.9-17.28l-9.27,52.89c13.28,0,26.55-.63,36.67-8.43l-1.69,28.03c-10.12-10.54-23.39-11.38-36.46-11.38l-2.74,14.54c-4.43,29.5-6.74,56.9-2.95,61.53h-54.37Z"/>
    <path class="cls-1" d="M698.38,521.37c12.43-10.54,26.97-94.83,18.33-105.36h52.68c-12.43,10.54-27.39,94.83-18.75,105.36h-52.26ZM750.64,371.75c9.27,0,17.49,6.32,15.38,18.75-2.11,12.64-12.64,18.97-22.13,18.97s-17.49-6.32-15.38-18.97c2.32-12.43,12.64-18.75,22.13-18.75Z"/>
    <path class="cls-1" d="M766.11,496.29c1.48-8.22,7.16-11.8,12.85-11.8,4.85,0,9.69,2.53,12.22,6.95-3.16,2.53-5.69,6.32-6.53,10.33-1.69,9.48,9.69,12.85,17.49,12.85,7.16,0,16.86-2.53,18.33-11.17,4-22.76-53.73-19.39-47.2-56.05,4.43-25.71,30.35-33.72,52.05-33.72,16.86,0,37.51,7.16,33.93,27.39-1.48,8.22-7.16,11.8-13.07,11.8-4.85,0-9.69-2.53-12.22-6.74,3.37-2.74,6.32-6.74,6.95-10.54,1.69-9.27-7.8-13.07-15.59-13.07-6.53,0-16.86,2.95-18.33,11.17-4,23.6,58.16,21.28,51.84,56.26-4.64,26.13-36.04,33.51-56.69,33.51-17.49,0-39.83-5.48-36.03-27.18Z"/>
    <path class="cls-1" d="M861.21,521.37c12.43-10.54,34.56-136.97,25.71-147.51h52.68c-5.69,4.85-13.49,34.35-19.6,65.74,11.59-17.7,25.29-25.71,36.67-25.71,9.27,0,16.86,5.27,20.44,15.17,2.11,5.9,2.74,13.49,1.26,22.34-8.64,48.26-8.43,65.54-4.85,69.96h-52.05c5.27-4.43,10.11-14.12,17.49-56.05,2.95-16.86-.42-24.65-6.11-24.65-4.42,0-10.11,4.42-15.17,12.64-5.48,32.24-8.43,63.22-4.21,68.06h-52.26Z"/>
  </g>
</svg>